:SAMPLES-PER-SECOND 30
:FULLY-SPECIFIED
:DEGREES
449
root  -0.607618 40.9418 -0.283864 6.42241 -85.8333 0.000349446
RightUpLeg  -5.02316 -1.85942 -2.30377
RightLeg  -4.48157 -24.5336 3.50404
RightFoot  3.17573 -0.315438 2.64685
RightToes  -3.10096e-008 1.75238e-005 3.56266e-009
Spine  4.49676 1.77893 0.915671
Spine1  14.9746 2.59587 -1.99344
HEad  -24.2608 -5.26941 7.48033
LeftShoulder1  3.08722 -8.62836 -18.9268
LeftArm  -5.04218 -28.0303 -30.8682
LeftForeArm  92.1659 -79.0561 -103.236
LeftHand  0.182338 -7.70539 -1.25
RightShoulder  2.65667 8.87471 14.636
RightArm  4.79024 42.4701 28.8756
RightForeArm  32.7579 77.2703 63.9716
RightHand  0.828972 5.3753 8.5862
LeftUpLeg  -8.11709 -0.040031 2.61385
LeftLeg  -3.51845 9.88332 -1.7355
LeftFoot  5.54618 0.207104 -1.62228
LeftToes  4.7633e-008 1.48299e-008 1.30754e-009
450
root  -0.649309 40.9495 -0.240382 5.92837 -85.7513 0.120146
RightUpLeg  -4.29102 -1.91421 -2.35843
RightLeg  -4.99896 -24.5086 3.65219
RightFoot  3.33154 -0.316842 2.63716
RightToes  -3.10096e-008 1.75238e-005 3.56266e-009
Spine  4.7115 1.83599 1.64537
Spine1  13.4874 2.85661 -2.75377
HEad  -23.5302 -6.14776 9.14918
LeftShoulder1  2.98141 -8.64076 -17.9618
LeftArm  -13.174 -36.8884 -30.4436
LeftForeArm  39.4937 -76.7898 -54.6814
LeftHand  -0.192614 -5.55007 2.40696
RightShoulder  2.36204 8.50622 12.647
RightArm  -3.47947 46.4791 26.2112
RightForeArm  7.94381 72.9278 42.0403
RightHand  0.624777 5.11691 6.57995
LeftUpLeg  -7.64837 0.0578365 2.56509
LeftLeg  -3.49254 9.61626 -1.80153
LeftFoot  5.4121 0.187097 -1.4947
LeftToes  4.7633e-008 1.48299e-008 1.30754e-009
451
root  -0.82975 40.9547 -0.188781 5.27568 -85.8855 0.254495
RightUpLeg  -3.65163 -1.95577 -2.38565
RightLeg  -4.53663 -24.2866 3.31794
RightFoot  2.99254 -0.326606 2.79628
RightToes  -3.10096e-008 1.75238e-005 3.56266e-009
Spine  4.22076 1.7582 2.37557
Spine1  12.1835 3.06134 -3.89862
HEad  -22.0191 -6.48241 10.0101
LeftShoulder1  2.676 -8.30616 -15.8794
LeftArm  -22.6867 -44.5482 -28.8146
LeftForeArm  5.98618 -68.1319 -29.6464
LeftHand  -0.358291 -3.119 5.07126
RightShoulder  1.96756 7.59189 10.5052
RightArm  -13.108 50.0196 22.7124
RightForeArm  -8.72149 65.8924 27.8002
RightHand  0.432956 5.00665 4.53139
LeftUpLeg  -6.98752 0.1664 2.4891
LeftLeg  -3.00615 9.58642 -1.72562
LeftFoot  4.81623 0.188357 -1.53222
LeftToes  4.7633e-008 1.48299e-008 1.30754e-009
452
root  -1.14077 40.9613 -0.145196 4.83233 -85.9544 -0.0261372
RightUpLeg  -2.63089 -1.87296 -2.28296
RightLeg  -3.98674 -24.2636 2.82372
RightFoot  2.49183 -0.328268 2.84643
RightToes  -3.10096e-008 1.75238e-005 3.56266e-009
Spine  3.53827 1.46909 2.3873
Spine1  10.5933 2.72507 -4.12022
HEad  -19.8412 -5.90023 10.3827
LeftShoulder1  2.22702 -7.29458 -13.6911
LeftArm  -34.3407 -49.7011 -24.6531
LeftForeArm  -8.59445 -57.7377 -18.7715
LeftHand  -0.34266 -1.93345 5.61481
RightShoulder  1.56764 6.6725 7.89238
RightArm  -23.5998 52.5053 18.8971
RightForeArm  -19.0022 57.1764 19.2173
RightHand  0.22234 4.61898 2.25547
LeftUpLeg  -5.88963 0.295741 2.42331
LeftLeg  -2.5421 9.4404 -1.56513
LeftFoot  4.07505 0.170717 -1.44552
LeftToes  4.7633e-008 1.48299e-008 1.30754e-009
453
root  -1.54233 40.9703 -0.102817 4.26815 -85.7725 -0.21372
RightUpLeg  -1.3482 -1.86128 -2.19801
RightLeg  -3.53448 -24.3807 2.40351
RightFoot  1.89442 -0.336441 3.00875
RightToes  -3.10096e-008 1.75238e-005 3.56266e-009
Spine  3.3149 1.18473 2.20802
Spine1  7.73319 2.27686 -4.0817
HEad  -17.2309 -5.74695 10.5033
LeftShoulder1  1.94261 -6.97461 -11.3586
LeftArm  -46.8501 -51.7568 -18.4296
LeftForeArm  -17.5242 -47.7688 -13.4544
LeftHand  -0.276563 -0.808463 5.26493
RightShoulder  1.21817 5.72967 5.42712
RightArm  -34.5517 53.1665 14.6688
RightForeArm  -24.993 48.0158 14.0355
RightHand  0.0745487 3.91389 0.676321
LeftUpLeg  -4.57805 0.346566 2.32078
LeftLeg  -2.21081 9.12688 -1.32601
LeftFoot  3.2862 0.174743 -1.51611
LeftToes  4.7633e-008 1.48299e-008 1.30754e-009
454
root  -2.00349 40.978 -0.061498 3.69986 -85.5796 -0.14113
RightUpLeg  0.0523112 -1.92963 -2.16953
RightLeg  -3.75448 -24.4428 2.37666
RightFoot  1.4881 -0.323529 2.96682
RightToes  -3.10096e-008 1.75238e-005 3.56266e-009
Spine  3.34852 0.902696 2.19852
Spine1  4.06923 1.89557 -4.40993
HEad  -14.3877 -6.19054 10.0217
LeftShoulder1  1.57194 -6.1898 -8.78079
LeftArm  -59.4698 -52.3725 -12.9451
LeftForeArm  -18.9755 -38.5907 -9.97983
LeftHand  -0.210995 -0.451521 4.27884
RightShoulder  0.985142 5.1575 3.33605
RightArm  -45.3115 51.4138 10.4345
RightForeArm  -26.976 39.3574 10.6037
RightHand  0.0178787 4.57712 -0.0944066
LeftUpLeg  -3.29642 0.473365 2.26691
LeftLeg  -2.16088 8.69668 -1.24817
LeftFoot  2.53957 0.16009 -1.44229
LeftToes  4.7633e-008 1.48299e-008 1.30754e-009
455
root  -2.49859 40.9795 -0.0350178 4.34896 -85.2679 -0.953685
RightUpLeg  1.26634 -1.98256 -2.08459
RightLeg  -4.16202 -24.6622 2.52657
RightFoot  1.1352 -0.327456 3.0647
RightToes  -3.10096e-008 1.75238e-005 3.56266e-009
Spine  3.1103 0.771292 2.14699
Spine1  0.698707 1.61522 -4.4548
HEad  -13.0287 -6.57117 9.6427
LeftShoulder1  1.26433 -5.23265 -6.82476
LeftArm  -71.5696 -51.7237 -6.86367
LeftForeArm  -14.5452 -30.1567 -7.3308
LeftHand  -0.234592 -0.793456 4.48843
RightShoulder  0.764597 4.13092 1.80559
RightArm  -54.8127 48.4978 6.09593
RightForeArm  -30.6258 32.8072 8.73692
RightHand  -0.0797892 3.98612 -1.21901
LeftUpLeg  -2.24515 0.593835 2.30655
LeftLeg  -2.34237 8.23562 -1.18355
LeftFoot  1.83582 0.150311 -1.39714
LeftToes  4.7633e-008 1.48299e-008 1.30754e-009
